{"title":"Lord.of.the.Rings.-.The.Two.Towers.[2002].DvdRip.XviD-KnÃƒÂ£","uid":6427275,"size":2144940032,"categoryP":"video","categoryS":"movies","magnet":"?xt=urn:btih:d97b925758bcc7e43435983480029da60517b7ad&amp;dn=Lord.of.the.Rings.-.The.Two.Towers.%5B2002%5D.DvdRip.XviD-Kn%C3%83%C2%A3&amp;tr=udp%3A%2F%2Ftracker.openbittorrent.com%3A80&amp;tr=udp%3A%2F%2Fopen.demonii.com%3A1337&amp;tr=udp%3A%2F%2Ftracker.coppersurfer.tk%3A6969&amp;tr=udp%3A%2F%2Fexodus.desync.com%3A6969","seeders":1,"leechers":0,"uploader":"Jon.Pson","files":1,"time":1306522084,"description":"Frodo and Sam continue on to Mordor in their mission to destroy the One Ring. Whilst their former companions make new allies and launch an assault on Isengard. \n\nGeneral\nComplete name                    : H:\\Movies\\Lord.of.the.Rings.-.The.Two.Towers.[2002].DvdRip.XviD-KnÃƒÂ£\\Lord.of.the.Rings.-.The.Two.Towers.[2002].DvdRip.XviD-KnÃƒÂ£.avi\nFormat                           : AVI\nFormat/Info                      : Audio Video Interleave\nFormat profile                   : OpenDML\nFile size                        : 2.00 GiB\nDuration                         : 2h 52mn\nOverall bit rate                 : 1 662 Kbps\nWriting application              : VirtualDubMod 1.5.4.1 (build 2178/release)\nWriting library                  : VirtualDubMod build 2178/release\n\nVideo\nID                               : 0\nFormat                           : MPEG-4 Visual\nFormat profile                   : Advanced Simple@L5\nFormat settings, BVOP            : Yes\nFormat settings, QPel            : No\nFormat settings, GMC             : No warppoints\nFormat settings, Matrix          : Custom\nCodec ID                         : XVID\nCodec ID/Hint                    : XviD\nDuration                         : 2h 52mn\nBit rate                         : 1 205 Kbps\nWidth                            : 624 pixels\nHeight                           : 256 pixels\nDisplay aspect ratio             : 2.40:1\nFrame rate                       : 25.000 fps\nColor space                      : YUV\nChroma subsampling               : 4:2:0\nBit depth                        : 8 bits\nScan type                        : Progressive\nBits/(Pixel*Frame)               : 0.302\nStream size                      : 1.45 GiB (72%)\nWriting library                  : XviD 1.2.1 (UTC 2008-12-04)\n\nAudio\nID                               : 1\nFormat                           : AC-3\nFormat/Info                      : Audio Coding 3\nMode extension                   : CM (complete main)\nCodec ID                         : 2000\nDuration                         : 2h 52mn\nBit rate mode                    : Constant\nBit rate                         : 448 Kbps\nChannel(s)                       : 6 channels\nChannel positions                : Front: L C R, Side: L R, LFE\nSampling rate                    : 48.0 KHz\nBit depth                        : 16 bits\nStream size                      : 551 MiB (27%)\nAlignment                        : Aligned on interleaves\nInterleave, duration             : 96 ms (2.40 video frames)\nInterleave, preload duration     : 96 ms\nLanguage                         : English\n\n","torrent":{"xt":"urn:btih:d97b925758bcc7e43435983480029da60517b7ad","amp;dn":"Lord.of.the.Rings.-.The.Two.Towers.%5B2002%5D.DvdRip.XviD-Kn%C3%83%C2%A3","amp;tr":["udp%3A%2F%2Ftracker.openbittorrent.com%3A80","udp%3A%2F%2Fopen.demonii.com%3A1337","udp%3A%2F%2Ftracker.coppersurfer.tk%3A6969","udp%3A%2F%2Fexodus.desync.com%3A6969"],"infoHash":"d97b925758bcc7e43435983480029da60517b7ad","infoHashBuffer":{"type":"Buffer","data":[217,123,146,87,88,188,199,228,52,53,152,52,128,2,157,166,5,23,183,173]},"announce":[],"urlList":[]}}